<svg xmlns="http://www.w3.org/2000/svg" width="40" height="40" fill="none" viewBox="0 0 40 40">
  <g clip-path="url(#a)">
    <path fill="#333" fill-rule="evenodd" d="M11.734 10.045c-1.58-.015-3.158 0-4.732.045.773-.06 1.562-.09 2.366-.09.796 0 1.585.015 2.366.045Z" clip-rule="evenodd"/>
    <path fill="#151515" fill-rule="evenodd" d="M30.753 10.09a.208.208 0 0 0 .18.045v.135h.18v.136a.562.562 0 0 1 .339.315 33.8 33.8 0 0 1-.023 3.02.618.618 0 0 1-.36.315v.135c-.104.037-.21.074-.316.113-.369.008-.729.03-1.082.067.015.22 0 .43-.045.631.008-.225 0-.45-.022-.676a3.84 3.84 0 0 1-.068.586c-.063.052-.123.052-.18 0 .04-.131.056-.267.045-.405h-.18v-.18h.18v-.361h-.18c.007.19-.023.37-.09.54h-.36c-.016.136.044.196.18.181a.66.66 0 0 0 0 .293c-.17.044-.2.014-.09-.09a.368.368 0 0 1-.271-.158v-.406a2.6 2.6 0 0 0-.676.045v1.262c-.038-.382-.06-.773-.068-1.171a.328.328 0 0 0-.09.135l-.045-.135a17.23 17.23 0 0 1-.428.09c-.13.023-.235-.007-.316-.09v-.136h-.991a.26.26 0 0 0-.225-.09v-.135a1.13 1.13 0 0 1-.361-.135v-.18h-.135a21.4 21.4 0 0 1-.068-3.02.266.266 0 0 0 .113-.27h.135v-.136h.135a.14.14 0 0 1 .045-.135 1.63 1.63 0 0 1 .316-.18L28.34 10c.82 0 1.624.03 2.412.09Z" clip-rule="evenodd"/>
    <path fill="#202020" fill-rule="evenodd" d="M28.003 13.56v-2.884a5.26 5.26 0 0 1 .947-.045v2.93h-.947Z" clip-rule="evenodd"/>
    <path fill="#363636" fill-rule="evenodd" d="M26.156 10.676h1.848v2.884h-1.848v-.991a.149.149 0 0 0-.09-.068.2.2 0 0 0 .09-.067.973.973 0 0 1-.406-.136h.406v-.45h-.406a.938.938 0 0 1 .406-.045v-.136a.94.94 0 0 1-.406-.045h.406v-.946Z" clip-rule="evenodd"/>
    <path fill="#5B5B5B" fill-rule="evenodd" d="M26.156 10.676v.946h-.406c-.007-.225 0-.45.023-.676.073-.078.14-.16.203-.248a.38.38 0 0 1 .18-.022Z" clip-rule="evenodd"/>
    <path fill="#5D5D5D" fill-rule="evenodd" d="M25.75 11.848h.407v.451h-.407v-.451Z" clip-rule="evenodd"/>
    <path fill="#969696" fill-rule="evenodd" d="M38.234 12.163h-5.183v.496a1.65 1.65 0 0 1-.045-.54c1.75-.016 3.493 0 5.228.044Z" clip-rule="evenodd"/>
    <path fill="#111" fill-rule="evenodd" d="M38.234 12.163v.586h-.316v4.236h.27v5.589c-.102-.02-.177.01-.224.09a97.515 97.515 0 0 0-.045 4.191h.315v.496c-1.72.045-3.448.06-5.183.045v-.586h.27v-2.974h.136l.09-.27h.135a.217.217 0 0 1 .09-.181l.18-.406h.136a.947.947 0 0 1 .135-.36l1.397-.09v-.27h.36v-.136h.767v-.54h.856c.03-1.233 0-2.45-.09-3.651h-.766v-.496h-.766v-.18h-.36v-.27h-1.398a3.445 3.445 0 0 1-.18-.496h-.136a1.288 1.288 0 0 1-.135-.316h-.135a.356.356 0 0 0-.18-.315 59.201 59.201 0 0 1-.135-3.11c-.117.021-.207-.009-.27-.09v-.496h5.182Z" clip-rule="evenodd"/>
    <path fill="#5E5E5E" fill-rule="evenodd" d="M26.156 12.569v.991h-.225a.981.981 0 0 0-.158-.315c-.023-.225-.03-.45-.023-.676h.406Z" clip-rule="evenodd"/>
    <path fill="#393939" fill-rule="evenodd" d="M34.583 12.75h.496v4.055h-.496V12.75Z" clip-rule="evenodd"/>
    <path fill="#5A5A5A" fill-rule="evenodd" d="M35.8 12.794a84.36 84.36 0 0 1-.045 4.011h-.315v-4.01h.36Z" clip-rule="evenodd"/>
    <path fill="#565656" fill-rule="evenodd" d="M36.521 17.21a285.86 285.86 0 0 1-.157-4.145l-.045 3.83a150.34 150.34 0 0 1-.09-4.1c-.023 1.396-.03 2.793-.023 4.19.058-.01.103.005.135.046h-.18v-4.282h.405c.015 1.495 0 2.982-.045 4.462Z" clip-rule="evenodd"/>
    <path fill="#8E8E8E" fill-rule="evenodd" d="M17.278 13.155c1.757-.06 3.515-.06 5.272 0 .015.19 0 .37-.045.54v-.54h-5.227Z" clip-rule="evenodd"/>
    <path fill="#3E3E3E" fill-rule="evenodd" d="M35.8 12.794h-.36v4.011a91.314 91.314 0 0 1-.045-4.056.938.938 0 0 1 .405.045Z" clip-rule="evenodd"/>
    <path fill="#838383" fill-rule="evenodd" d="M36.927 12.75h.406v4.46a1.877 1.877 0 0 0-.406-.044v-4.417Z" clip-rule="evenodd"/>
    <path fill="#414141" fill-rule="evenodd" d="M33.322 12.75a59.31 59.31 0 0 0 .135 3.109 1.39 1.39 0 0 1-.09-.09c-.045-1.006-.06-2.013-.045-3.02Z" clip-rule="evenodd"/>
    <path fill="#666" fill-rule="evenodd" d="M36.521 17.21h-.18v-.18c-.032-.04-.077-.055-.135-.045-.008-1.397 0-2.794.022-4.19.012 1.367.042 2.734.09 4.1l.046-3.83c.048 1.533.1 2.915.157 4.146Z" clip-rule="evenodd"/>
    <path fill="#131313" fill-rule="evenodd" d="M11.735 10.045c.307.16.548.385.72.676.046.984.06 1.975.046 2.975a.37.37 0 0 0-.18.27h-.136v.18a4.4 4.4 0 0 0-.36.136c-.375.045-.75.06-1.127.045.069.168.159.318.27.45.084.302.204.588.36.857a.625.625 0 0 0 .136.27c.128.174.233.37.316.586.106-.077.212-.153.315-.225.23-.16.44-.34.63-.541.501-.402.997-.815 1.488-1.24a38.37 38.37 0 0 1 2.614-.924v-.135l.45-.09v-.18h5.229v.54a3.85 3.85 0 0 0-1.037.09c0 .075-.03.135-.09.181.068.06.098.136.09.226l.36.18a.597.597 0 0 0 .09.225c.276.02.546.064.812.135.11.035.17.11.18.226a.14.14 0 0 1 .135.045 9.504 9.504 0 0 1 1.533 2.253h.135a.963.963 0 0 0 .293.54l.45-.45c.073-.11.11-.23.113-.36.058.01.103-.005.135-.046.278-.375.534-.766.766-1.171.192-.24.38-.48.564-.721.104-.156.187-.322.248-.496.142-.028.285-.058.428-.09l.045.135a.328.328 0 0 1 .09-.135c.008.398.03.789.067 1.172.096-.1.171-.22.226-.36a.14.14 0 0 1 .135-.046 6.08 6.08 0 0 0 .225-.496h.09c.061.09.151.142.27.158-.108.104-.078.134.091.09a.66.66 0 0 1 0-.293c-.135.015-.195-.045-.18-.18h.36c.068-.17.098-.35.09-.54h.18v.36h-.18v.18h.18c.012.139-.003.274-.044.405.057.052.117.052.18 0 .037-.193.06-.388.067-.585.023.224.03.45.023.675h-.135a2.44 2.44 0 0 1-.09.902v.003a8.407 8.407 0 0 1-.136 1.169v.856h1.217c2.002-.015 4 0 5.994.045a.423.423 0 0 0 .27.18v.136c.094.024.184.062.271.112a.198.198 0 0 1 .045.158h.18v2.298h-.18a.412.412 0 0 1-.112.316 2.294 2.294 0 0 0-.519.405c-2.403.035-4.807.05-7.21.046v.856h.18a3.84 3.84 0 0 0 .09 1.171v.902h.18v.63l1.082.09c.102.06.207.104.315.136v.135h.18v.136h.136c.104 1.108.119 2.22.045 3.334h-.135l-.09.27a2.27 2.27 0 0 1-.316.046v.135c-.058-.01-.103.005-.135.045-1.6.045-3.207.06-4.822.045v-.135a1.15 1.15 0 0 1-.722-.676 20.98 20.98 0 0 1 0-2.749 1.73 1.73 0 0 1 .18-.316c.146-.118.28-.246.406-.383a5.588 5.588 0 0 1 1.172-.067v-.226c.124.015.244 0 .36-.045a2.273 2.273 0 0 1-.225-.45h-.135a8.738 8.738 0 0 1-.586-.992h-.135a1.034 1.034 0 0 1-.09-.36h-.135c-.09-.24-.21-.466-.36-.676a.217.217 0 0 1-.091-.18h-.135a1.003 1.003 0 0 0-.45-.541 6.893 6.893 0 0 0-.542.901h-.135c0 .07-.016.138-.045.203l-.901 1.307a.368.368 0 0 1-.226.113c-.051.145-.126.28-.225.405a.213.213 0 0 1-.18.09v.135a7.32 7.32 0 0 0-.811.023.198.198 0 0 0-.046.158 1.286 1.286 0 0 1-.315.135 3.063 3.063 0 0 0-.18.338c.048.11.124.192.225.248.292.044.593.06.902.045v.54h-5.228v-.18a.58.58 0 0 1-.226-.022 1.428 1.428 0 0 0-.36-.226.582.582 0 0 0-.226-.022v-.135l-.54-.09v-.136h-.36v-.135h-.406v-.135a4.604 4.604 0 0 0-.676-.135v-.135h-.316a.198.198 0 0 0-.045-.158 41.509 41.509 0 0 0-.315-.113.14.14 0 0 0-.046-.135 14.538 14.538 0 0 1-1.036-.856 3.926 3.926 0 0 0-.631-.496.881.881 0 0 0-.27-.225 1.4 1.4 0 0 0-.406.766h-.135a6.628 6.628 0 0 1-.316.811 9.535 9.535 0 0 0-.315.54c.374.038.75.06 1.127.068.198.073.378.17.54.293.032.109.077.214.136.316.06.991.06 1.983 0 2.974-.076.121-.15.241-.226.36a.511.511 0 0 1-.36.136v.135h-.09a44.724 44.724 0 0 1-4.868-.045.715.715 0 0 0-.405-.315 44.976 44.976 0 0 0-.18-.406c-.06-.901-.06-1.803 0-2.704.059-.163.134-.313.225-.45h.135v-.136a.674.674 0 0 0 .315-.18H8.04v-2.93a.58.58 0 0 0-.315.046h-.767v-.586h.406v-.27a26.012 26.012 0 0 0-2.163-.046c.015-.474 0-.94-.045-1.397h-.27v3.921h1.532v.54H2v-.54h.36v-8.383H2v-.585h4.372c.044.186.059.381.045.585H4.884v3.876h.27c.045-.442.06-.893.046-1.352a.309.309 0 0 0 .225-.045h.045c.64.015 1.27 0 1.893-.045v-.225h-.406v-.586H8.04v-2.884h-.991a.938.938 0 0 0-.451-.316v-.135h-.135a4.372 4.372 0 0 0-.136-.36c-.06-.902-.06-1.803 0-2.705.028-.193.134-.313.316-.36v-.135h.135c.015-.136.09-.21.225-.226 1.574-.044 3.152-.06 4.733-.045Zm15.369 7.66v.002c-.042.032-.057.077-.046.136a1.85 1.85 0 0 1-.406-.023c.14-.129.26-.271.36-.428.033-.041.077-.057.136-.046a.751.751 0 0 1-.044.358Zm.764.227c-.015-.422 0-.842.046-1.262a.402.402 0 0 1 .135.18c.017.15.062.285.135.406l.36.676h-.676Zm-.72-1.443a1.89 1.89 0 0 0 0-.81.337.337 0 0 0-.09.135 6.81 6.81 0 0 0-.361.676h-.136a.219.219 0 0 1-.045.18c-.278.394-.563.785-.856 1.172.09.054.18.054.27 0a.618.618 0 0 1 .361-.316l.09-.27h.135v-.18a.14.14 0 0 0 .136-.046 1.51 1.51 0 0 1 .495-.541Zm1.667-1.442c.06.209.09.434.09.676.002.474-.044.94-.135 1.398h-.135a5.483 5.483 0 0 1-.27-.812h-.136a1.9 1.9 0 0 1 .09-.45h.135v-.226h.136c.11-.176.185-.371.225-.585Zm-2.524 7.076a.807.807 0 0 0-.54-.45.909.909 0 0 1 .044.27h.135a.223.223 0 0 0 .023.135c.394.585.792 1.17 1.194 1.758.06-.24.06-.481 0-.721a14.643 14.643 0 0 1-.608-.722.367.367 0 0 1-.113-.225.14.14 0 0 1-.135-.045Zm1.622.766a9.518 9.518 0 0 1-.044-1.307c.227-.015.452 0 .675.045-.119.24-.224.481-.315.721h-.135a.415.415 0 0 1-.09.36c.012.086-.018.145-.09.18Zm-1.171-1.217a.703.703 0 0 1 .315.045.883.883 0 0 1 .045.496l-.09-.045c-.09-.17-.18-.334-.27-.496Zm1.983.767c-.084.08-.114.185-.09.315h-.136a2.5 2.5 0 0 1-.112.45c-.218.162-.21.297.022.406.045.157.105.307.18.45.1.131.198.266.294.407l.022-.541a8.681 8.681 0 0 1-.042-.22c0-.092 0-.184-.003-.276h-.043a9.194 9.194 0 0 1-.092-.991ZM8.58 22.303h.135c-.019.308.011.609.09.902a.433.433 0 0 1-.113.09c-.01.184-.033.364-.067.54a13.05 13.05 0 0 1-.045-1.532Zm1.397.631a1.403 1.403 0 0 0-.496-.045.391.391 0 0 1-.09.316 8.463 8.463 0 0 0-.586 1.442h.045a.626.626 0 0 0 .135-.27h.136c.075-.144.135-.295.18-.451h.135l.09-.36h.135v-.181h.136a2.19 2.19 0 0 1 .18-.45ZM8.67 15.678v.09c-.01.208.02.403.09.586.08.048.11.123.09.226a.832.832 0 0 1-.022.27c-.039.073-.084.088-.136.045a.34.34 0 0 1-.112.27 6.188 6.188 0 0 1 .09-1.487Zm.36-.45a.812.812 0 0 0-.27-.496l-.045.09c.262.582.518 1.168.766 1.758.165.06.33.06.496 0a15.369 15.369 0 0 0-.811-1.352H9.03Zm1.443-.135c.028.378-.002.739-.09 1.081-.015-.07-.06-.1-.136-.09l-.27-.63a.197.197 0 0 1-.158-.046 1.179 1.179 0 0 0-.293-.45.74.74 0 0 0-.225-.361c-.095-.058-.14-.148-.135-.27h.991c.045.145.083.295.113.45.074.106.141.21.203.316Zm-.045 8.99a2.17 2.17 0 0 0 .09-.743h-.135a9.87 9.87 0 0 1-.316.586h-.135a.309.309 0 0 1-.045.18 3.61 3.61 0 0 0-.45.721H9.3a.5.5 0 0 1-.135.315c.3.053.6.06.901.023.163-.247.299-.51.406-.789a6.906 6.906 0 0 1-.045-.293Zm17.486-.112h.135c.088.337.26.622.518.856.022.12.03.24.023.36h-.676v-1.216ZM8.67 15.678c-.09.479-.12.975-.09 1.488a13.049 13.049 0 0 1-.045-1.533c.058-.01.103.005.135.045Zm-.045 8.158a13.051 13.051 0 0 1-.045-1.533 6.971 6.971 0 0 0 0 1.578c.027-.006.042-.021.045-.045Z" clip-rule="evenodd"/>
    <path fill="#4F4F4F" fill-rule="evenodd" d="M35.485 20.185c.023.128.068.248.135.36a1.45 1.45 0 0 0-.225.406c-.104.037-.21.074-.316.113-2.584.023-5.168.03-7.751.023v-.18a.21.21 0 0 0 .225-.09c2.508-.046 5.017-.061 7.526-.046l.18-.406h.18a.208.208 0 0 1 .046-.18Z" clip-rule="evenodd"/>
    <path fill="#9E9E9E" fill-rule="evenodd" d="M20.162 20.23h.135v.721h-.135v-.72Z" clip-rule="evenodd"/>
    <path fill="#525252" fill-rule="evenodd" d="M6.191 19.554a.75.75 0 0 1-.36.045v.316a.945.945 0 0 1 .495.09c.085 0 .1-.022.046-.068.194-.022.39-.03.585-.022l1.172.09c.069.085.159.13.27.135.515.039 1.026.106 1.533.203.946.077 1.892.144 2.839.203-.013.162.002.32.045.473.345.022.69.03 1.037.022v-.81h.18v.224a.222.222 0 0 1 .135.023.654.654 0 0 0 .18.225c.21.023.42.03.631.023v-.316a.59.59 0 0 1 .316.046c.08.153.155.303.225.45h.135l.09.36h.136v.136h.135v.135h.135v.135a1.391 1.391 0 0 1-.09-.09c-.856.014-1.697.06-2.524.135a9.458 9.458 0 0 0-.811-.09v-.135c-.571.008-1.142 0-1.713-.023a36.672 36.672 0 0 1-1.712-.518 3.607 3.607 0 0 0-.676-.135v-.135c-.166.007-.331 0-.496-.023a2.72 2.72 0 0 0-.991-.315 3.257 3.257 0 0 0-1.352-.383v-.406h.405Z" clip-rule="evenodd"/>
    <path fill="#F5F5F5" fill-rule="evenodd" d="M5.155 20.05v1.442h.315v2.479h-.586V20.05h.27Z" clip-rule="evenodd"/>
    <path fill="#383838" fill-rule="evenodd" d="M2.901 19.96h.631v4.01h-.63v-4.01Z" clip-rule="evenodd"/>
    <path fill="#484848" fill-rule="evenodd" d="M12.636 19.96h.54v.766a2.911 2.911 0 0 1-.044-.721 1.4 1.4 0 0 1-.496-.045Z" clip-rule="evenodd"/>
    <path fill="#787878" fill-rule="evenodd" d="M6.957 19.915h5.318v.405h.496v.226c-.947-.059-1.893-.126-2.84-.203A13.574 13.574 0 0 0 8.4 20.14a.353.353 0 0 1-.27-.135l-1.172-.09Z" clip-rule="evenodd"/>
    <path fill="#1F1F1F" fill-rule="evenodd" d="M3.532 19.96h.856v4.01a2.537 2.537 0 0 0-.856 0v-4.01Z" clip-rule="evenodd"/>
    <path fill="gray" fill-rule="evenodd" d="M2.901 19.554h1.487v.406H2.902v-.406Z" clip-rule="evenodd"/>
    <path fill="#D1D1D1" fill-rule="evenodd" d="M12.185 19.6h.09v.315h-.045v-.27a79.5 79.5 0 0 0-3.786.044.2.2 0 0 1-.09.068c-.426.06-.847.113-1.262.158h-.135v-.316h5.228Z" clip-rule="evenodd"/>
    <path fill="#E8E8E8" fill-rule="evenodd" d="M12.23 19.915H7.093c.414-.045.835-.097 1.261-.158a.2.2 0 0 0 .09-.068 79.501 79.501 0 0 1 3.786-.045v.27Z" clip-rule="evenodd"/>
    <path fill="#F8F8F8" fill-rule="evenodd" d="M15.52 19.554h1.082v.406a6.807 6.807 0 0 0-1.082.045.586.586 0 0 1 0-.45Z" clip-rule="evenodd"/>
    <path fill="#6F6F6F" fill-rule="evenodd" d="M9.12 19.284c-.11.05-.23.088-.36.113.197.018.392.049.586.09l2.524.045c.114.008.219.03.315.067H6.957v.316a3.83 3.83 0 0 0-.586.022c.055.046.04.069-.045.068a.945.945 0 0 0-.495-.09v-.316c.13.014.25 0 .36-.045.737.015 1.473 0 2.208-.045a.463.463 0 0 0-.18-.067c.294-.096.594-.149.901-.158Z" clip-rule="evenodd"/>
    <path fill="#686868" fill-rule="evenodd" d="M35.53 19.329h1.036v.856h-1.081c.043-.281.058-.567.045-.856Z" clip-rule="evenodd"/>
    <path fill="#858585" fill-rule="evenodd" d="M17.232 18.878c.192.092.365.212.519.36.03.346.03.692 0 1.037a.198.198 0 0 1-.158.045v.18h-.18v.136a5.699 5.699 0 0 1-1.397 0h.676c.186-.002.366-.032.54-.09v-.136h.18v-.225h.136a6.53 6.53 0 0 0-.023-.766.224.224 0 0 0-.157-.18.219.219 0 0 1-.045-.18c-.059.01-.104-.005-.136-.046.041-.032.056-.077.045-.135Z" clip-rule="evenodd"/>
    <path fill="#323232" fill-rule="evenodd" d="M35.485 18.743a.53.53 0 0 1 .135.45h.946v.136h-1.081c-.026-.097.004-.187.09-.27a.505.505 0 0 1-.09-.316Z" clip-rule="evenodd"/>
    <path fill="#121212" fill-rule="evenodd" d="M16.737 18.923a.897.897 0 0 1 .45.09c.033.041.078.056.136.045a.219.219 0 0 0 .045.18c.087.03.14.09.158.181.022.255.03.51.022.766h-.135v.226h-.18v.135a1.734 1.734 0 0 1-.541.09V20.5a.444.444 0 0 0 .27-.046c-.109-.1-.079-.144.09-.135v-1.036h-.135v-.18a.208.208 0 0 0-.18-.046v-.135Z" clip-rule="evenodd"/>
    <path fill="#797979" fill-rule="evenodd" d="M12.771 18.968v.226h-.496v.405h-.09a1.103 1.103 0 0 0-.315-.067l-2.524-.045a5.217 5.217 0 0 0-.586-.09c.13-.025.25-.063.36-.113a105.9 105.9 0 0 0 3.651-.316Z" clip-rule="evenodd"/>
    <path fill="#5A5A5A" fill-rule="evenodd" d="M16.737 18.923v.136a.208.208 0 0 1 .18.044h-.225a.208.208 0 0 1 .045-.18Z" clip-rule="evenodd"/>
    <path fill="#BDBDBD" fill-rule="evenodd" d="M17.233 18.878c.01.058-.005.103-.046.135a.897.897 0 0 0-.45-.09.208.208 0 0 0-.045.18h.225v.18h.135v1.037c-.17-.01-.2.036-.09.136a.444.444 0 0 1-.27.045v.135h-.676a.644.644 0 0 0-.27-.158.801.801 0 0 0-.204-.248.584.584 0 0 1-.022-.225 6.807 6.807 0 0 1 1.082-.045v-.406H15.52a.594.594 0 0 1 .113-.36 3.01 3.01 0 0 1 .383-.293c.405-.023.81-.03 1.217-.023Z" clip-rule="evenodd"/>
    <path fill="#A8A8A8" fill-rule="evenodd" d="M13.357 18.833h.18v.721h.18v.406h-.18v.766h-.36v-.045h.18v-1.848Z" clip-rule="evenodd"/>
    <path fill="#F2F2F2" fill-rule="evenodd" d="M13.357 18.833v1.848h-.18v-.721h-.541v-.406h.54v-.72h.18Z" clip-rule="evenodd"/>
    <path fill="#7C7C7C" fill-rule="evenodd" d="M21.244 18.157c.088.059.178.12.27.18v.136h5.768v.135c.169-.04.26.02.27.18 2.45-.015 4.898 0 7.347.045.143.05.279.11.405.18.007.145.045.16.113.045.009.1.031.19.068.27h.045c.013.29-.002.576-.045.857a.208.208 0 0 0-.045.18h-.18l-.181.406c-2.509-.015-5.018 0-7.526.045-.053.078-.128.108-.226.09v.18H21.56v.18a5.066 5.066 0 0 1-.766.113l.045.045c-.09.09-.165.189-.226.293-.04.032-.055.077-.044.136h-.136c.022.18-.053.284-.225.315v-.315a.486.486 0 0 1-.27-.09c.2-.128.396-.263.585-.406.264-.088.52-.193.767-.316.043-.358.058-.718.045-1.081h2.523v-.36h-2.523a8.19 8.19 0 0 0-.046-1.127 28.473 28.473 0 0 1-.766-.27 2.735 2.735 0 0 0-.585-.451.32.32 0 0 1 .225-.046.82.82 0 0 1 .113-.36c.154.284.371.509.653.676.118.025.223.07.316.135Z" clip-rule="evenodd"/>
    <path fill="#F3F3F3" fill-rule="evenodd" d="M26.156 19.6h.946v.36h-.946v-.36Z" clip-rule="evenodd"/>
    <path fill="#F6F6F6" fill-rule="evenodd" d="M34.538 19.149h.36v1.261h-.36v-1.26Z" clip-rule="evenodd"/>
    <path fill="#878787" fill-rule="evenodd" d="M20.117 18.608h.18v.676h-.18v-.676Z" clip-rule="evenodd"/>
    <path fill="#525252" fill-rule="evenodd" d="M27.283 18.473h.18c2.539-.008 5.078 0 7.616.022a.4.4 0 0 1 .158.158c.118-.064.2-.034.248.09a.505.505 0 0 0 .09.316c-.086.083-.116.173-.09.27a.825.825 0 0 1-.068-.27c-.068.114-.106.1-.112-.046a2.502 2.502 0 0 0-.406-.18c-2.448-.045-4.897-.06-7.346-.045-.012-.16-.102-.22-.27-.18v-.135Z" clip-rule="evenodd"/>
    <path fill="#626262" fill-rule="evenodd" d="M21.514 18.337c1.041.09 2.093.12 3.155.09.804-.014 1.6 0 2.388.046h-5.543v-.136Z" clip-rule="evenodd"/>
    <path fill="#2D2D2D" fill-rule="evenodd" d="M25.345 18.247c.556-.007 1.112 0 1.667.023a.71.71 0 0 0 .316.09c.065.017.11.055.135.113h-.406a31.674 31.674 0 0 0-2.388-.046c.2-.059.41-.096.63-.112a.102.102 0 0 0 .046-.068Z" clip-rule="evenodd"/>
    <path fill="#484848" fill-rule="evenodd" d="M21.243 18.157c1.365.084 2.732.114 4.102.09a.102.102 0 0 1-.046.068c-.22.016-.43.053-.63.112a28.076 28.076 0 0 1-3.155-.09c-.092-.06-.182-.121-.27-.18Z" clip-rule="evenodd"/>
    <path fill="#4F4F4F" fill-rule="evenodd" d="M13.222 17.842c.96.09 1.937.12 2.93.09-.033.04-.078.056-.136.045v.135a.198.198 0 0 0-.158.045c-.2.314-.402.63-.608.947a.591.591 0 0 1-.316.045v-.316c-.18-.007-.36 0-.54.023a2.493 2.493 0 0 1-.316.247.22.22 0 0 0-.045.18h-.135v-.765H12.77v.45c-1.215.126-2.431.232-3.65.316a3.189 3.189 0 0 0-.902.158c.065.01.125.032.18.067-.735.045-1.47.06-2.208.045.153-.073.319-.14.496-.203.293-.064.586-.132.879-.202.254-.153.532-.228.834-.226v-.135h.315v-.135c.168.014.333 0 .496-.045.55-.23 1.12-.38 1.712-.45v-.136c.602.015 1.203 0 1.803-.045.177-.023.343-.068.496-.135Z" clip-rule="evenodd"/>
    <path fill="#F4F4F4" fill-rule="evenodd" d="M18.404 16.985c.185.08.305.215.36.406.046.292.06.592.046.901h.135c.032.292.092.577.18.857h.136l.18.36a10.86 10.86 0 0 0 1.893.09h2.524v.36h-2.524c-.571-.007-1.142 0-1.713.023a.308.308 0 0 0-.18.248h-.135c-.054.13-.129.25-.226.36a1.637 1.637 0 0 0-.135.677h-.135v.901h-.135v.27a.34.34 0 0 0-.248.18c-.023-.164-.03-.329-.023-.495.075-.344.12-.704.136-1.082a24.198 24.198 0 0 0-.136-4.056Zm-1.757.181h.27v.585h-.27v-.585Z" clip-rule="evenodd"/>
    <path fill="#7B7B7B" fill-rule="evenodd" d="M16.647 17.166v.585c-.121-.007-.241 0-.36.023a.337.337 0 0 1-.136.158c-.993.03-1.969 0-2.93-.09.107.007.212 0 .316-.023a2.33 2.33 0 0 1 .676-.225c.26-.086.5-.206.721-.36.569-.064 1.14-.086 1.713-.068Z" clip-rule="evenodd"/>
    <path fill="#7E7E7E" fill-rule="evenodd" d="M16.917 17.166h.947v.585h-.947v-.585Z" clip-rule="evenodd"/>
    <path fill="#989898" fill-rule="evenodd" d="M19.306 15.994a.748.748 0 0 1 .36-.045v1.532a.748.748 0 0 1-.36-.045h.315v-1.442h-.315Z" clip-rule="evenodd"/>
    <path fill="#444" fill-rule="evenodd" d="M19.711 15.994a.26.26 0 0 1 .248.09c.03.436.03.871 0 1.307a.41.41 0 0 1-.248.045v-1.442Z" clip-rule="evenodd"/>
    <path fill="#FCFCFC" fill-rule="evenodd" d="M19.306 15.994h.315v1.442h-.315v-1.442Z" clip-rule="evenodd"/>
    <path fill="#F0F0F0" fill-rule="evenodd" d="M12.095 16.264c-.103.073-.209.148-.315.226a2.48 2.48 0 0 0-.316-.586.303.303 0 0 0-.135-.27 3.587 3.587 0 0 1-.36-.857 1.893 1.893 0 0 0-.046-.09c.108-.043.153.002.136.135h.135l.09.27h.135c.141.293.321.563.54.812a.913.913 0 0 1 .136.36Z" clip-rule="evenodd"/>
    <path fill="#F4F4F4" fill-rule="evenodd" d="M5.47 15.588v2.479h-.315v1.397h-.27v-3.876h.585Z" clip-rule="evenodd"/>
    <path fill="#353535" fill-rule="evenodd" d="M2.901 15.633h.631v3.876c-.19-.014-.37 0-.54.045h-.09v-3.92Z" clip-rule="evenodd"/>
    <path fill="#1E1E1E" fill-rule="evenodd" d="M2.901 15.633c.4-.022.805-.037 1.217-.045.096.005.18.036.248.09.014 1.29.022 2.583.022 3.876H2.991a1.65 1.65 0 0 1 .541-.045v-3.876h-.63Z" clip-rule="evenodd"/>
    <path fill="#4E4E4E" fill-rule="evenodd" d="M17.053 14.281c.057.13.02.16-.113.09-.082.024-.09.061-.023.113-.042.028-.08.02-.112-.022-.028.042-.02.08.022.112a.976.976 0 0 1-.36.203v.135h-.136v.135a.291.291 0 0 0-.225.136l-.09-.09c-.023.238-.15.418-.383.54a.627.627 0 0 0-.158.27l-.27.09a1.342 1.342 0 0 0-.09.316h-.18a.198.198 0 0 1-.046.158c-.086.05-.176.088-.27.113v.135h-.135v.18h.18a7.82 7.82 0 0 0-1.307.496 9.871 9.871 0 0 0-.766.158 2.9 2.9 0 0 1-.721 0c.323-.193.653-.366.991-.518v-.136h.27v-.135h.226a.14.14 0 0 1 .045-.135 35.811 35.811 0 0 1 2.254-1.442.14.14 0 0 0 .045-.136c.341-.152.657-.355.946-.608l.406-.158Z" clip-rule="evenodd"/>
    <path fill="#272727" fill-rule="evenodd" d="M21.108 15.002h.226v1.848h-.136a.38.38 0 0 1-.022.18l-.045-.045c-.023-.66-.03-1.321-.023-1.983Z" clip-rule="evenodd"/>
    <path fill="#464646" fill-rule="evenodd" d="M21.92 14.597h.81v.135a4.293 4.293 0 0 0-.81-.135Z" clip-rule="evenodd"/>
    <path fill="#7A7A7A" fill-rule="evenodd" d="M18.27 13.83v.136c-.249-.027-.399.078-.451.315h-.136a.8.8 0 0 1-.067.316c-.023.69-.03 1.382-.023 2.073h.36c-.007-.721 0-1.442.023-2.163.05-.18.155-.27.316-.27a.658.658 0 0 0 .203-.406h.766v1.712h-.27v.135a.292.292 0 0 0-.203.045c-.023.556-.03 1.112-.023 1.668a.608.608 0 0 0-.36-.406.503.503 0 0 0-.316-.247 116.315 116.315 0 0 0-3.065-.023.99.99 0 0 1-.36.18h-.18v-.18h.135v-.135a1.06 1.06 0 0 0 .27-.113.197.197 0 0 0 .045-.158h.18c.018-.11.048-.214.09-.315l.271-.09a.627.627 0 0 1 .158-.27c.232-.123.36-.303.383-.541l.09.09a.291.291 0 0 1 .225-.136v-.135h.136v-.135a.976.976 0 0 0 .36-.203c-.043-.032-.05-.07-.022-.112.032.043.07.05.112.022-.067-.052-.06-.09.023-.113.133.07.17.04.112-.09.374-.228.78-.378 1.217-.45Z" clip-rule="evenodd"/>
    <path fill="#F6F6F6" fill-rule="evenodd" d="M18.269 13.83h.225a.658.658 0 0 1-.203.406c-.16.001-.266.091-.315.27a51.83 51.83 0 0 0-.023 2.164h-.36c-.008-.691 0-1.382.022-2.073a.798.798 0 0 0 .068-.316h.135c.053-.237.203-.342.45-.315v-.135Z" clip-rule="evenodd"/>
    <path fill="#535353" fill-rule="evenodd" d="M19.26 13.83h.812v1.848h-.136v-.135h-.675v-1.712Z" clip-rule="evenodd"/>
    <path fill="#656565" fill-rule="evenodd" d="M6.867 12.569h.406v.991l-.27-.09a.485.485 0 0 0-.09-.27 2.248 2.248 0 0 1-.046-.631Z" clip-rule="evenodd"/>
    <path fill="#646464" fill-rule="evenodd" d="M6.867 11.848c.151-.008.302 0 .452.022a1.108 1.108 0 0 0-.045.43h-.407v-.452Z" clip-rule="evenodd"/>
    <path fill="#616161" fill-rule="evenodd" d="M7.093 10.721h.18v.901h-.406c-.007-.21 0-.42.023-.63.057-.102.125-.192.203-.27Z" clip-rule="evenodd"/>
    <path fill="#1C1C1C" fill-rule="evenodd" d="M9.12 10.676c.617-.008 1.233 0 1.848.022.031.253.031.501 0 .744a19.56 19.56 0 0 0-.766 0 .76.76 0 0 0-.045-.36c-.037.3-.067.6-.09.901.017.494.017.99 0 1.487a.394.394 0 0 1 .293 0 .583.583 0 0 0 .023-.225h-.18v-.36h.18v-.902h.495c-.007.3 0 .601.023.901l.045-1.036c.015.436.038.871.068 1.307a2.523 2.523 0 0 1-.046.383 3.882 3.882 0 0 0-.563.067 61.495 61.495 0 0 1-3.132-.045h1.848v-2.884Z" clip-rule="evenodd"/>
    <path fill="#353535" fill-rule="evenodd" d="M7.093 10.721c.668-.045 1.344-.06 2.028-.045v2.884H7.273v-.991h-.406c.141-.044.291-.06.45-.045v-.18a1.156 1.156 0 0 1-.45-.046h.406a1.1 1.1 0 0 1 .045-.428c-.15-.022-.3-.03-.45-.022.14-.044.29-.06.45-.045a.208.208 0 0 0-.045-.18v-.902h-.18Z" clip-rule="evenodd"/>
    <path fill="#4A4A4A" fill-rule="evenodd" d="M27.328 21.087a4.406 4.406 0 0 1-1.172.157c-1.488.032-2.975.07-4.462.113a3.29 3.29 0 0 0-.856.18c-.011.134-.086.194-.226.18.06-.104.136-.202.226-.293l-.045-.045a5.08 5.08 0 0 0 .766-.112v-.18h5.768Z" clip-rule="evenodd"/>
    <path fill="#7E7E7E" fill-rule="evenodd" d="M16.151 21.672h.135v.136h.406v.585h-1.533v-.135c-.555-.15-1.096-.33-1.622-.54a33.564 33.564 0 0 1 2.524-.136c.03.034.06.064.09.09Z" clip-rule="evenodd"/>
    <path fill="#7A7A7A" fill-rule="evenodd" d="M16.917 21.808h.947v.585h-.947v-.585Z" clip-rule="evenodd"/>
    <path fill="#636363" fill-rule="evenodd" d="M2 15.588h.36v8.383H2a.579.579 0 0 1 .315-.045v-8.293A.58.58 0 0 1 2 15.588Z" clip-rule="evenodd"/>
    <path fill="#F2F2F2" fill-rule="evenodd" d="M16.692 21.808h.225v.585h-.225v-.585Z" clip-rule="evenodd"/>
    <path fill="#F7F7F7" fill-rule="evenodd" d="M19.621 22.078v1.487h-.225a6.184 6.184 0 0 1-.09-1.487h.315Z" clip-rule="evenodd"/>
    <path fill="#505050" fill-rule="evenodd" d="M19.621 22.078c.038.473.06.954.068 1.442.022-.48.03-.961.022-1.442a.26.26 0 0 1 .248.09c.038.437.03.872-.022 1.307a.55.55 0 0 1-.541.09h.225v-1.487Z" clip-rule="evenodd"/>
    <path fill="#3C3C3C" fill-rule="evenodd" d="m35.62 22.529-1.397.09a5.47 5.47 0 0 1 1.397-.09Z" clip-rule="evenodd"/>
    <path fill="#5C5C5C" fill-rule="evenodd" d="M36.431 22.303h.136v4.462h-.406v-4.236c.173.021.264-.054.27-.226Z" clip-rule="evenodd"/>
    <path fill="#292929" fill-rule="evenodd" d="M21.154 22.574c.036.042.074.087.112.135.03.57.03 1.142 0 1.712a.164.164 0 0 1-.067.046 19.92 19.92 0 0 1-.045-1.893Z" clip-rule="evenodd"/>
    <path fill="#363636" fill-rule="evenodd" d="M34.583 22.664h.496v4.1h-.496v-4.1Z" clip-rule="evenodd"/>
    <path fill="#505050" fill-rule="evenodd" d="M14.664 22.709a.353.353 0 0 0-.225-.023c.195.166.375.346.54.541a.367.367 0 0 0 .226.113v.135c.135.015.21.09.225.225.087.01.162.048.226.113a.198.198 0 0 1 .045.158c.135-.015.195.045.18.18.17.026.238.116.203.27a.178.178 0 0 1 .09-.045.69.69 0 0 1 .27.316.164.164 0 0 1 .068-.045.984.984 0 0 0 .135.18.213.213 0 0 0-.09.18 1.06 1.06 0 0 0-.631-.315v-.135a2.137 2.137 0 0 1-.54-.36.913.913 0 0 0-.361-.136v-.135c-.24-.09-.466-.21-.676-.36a.213.213 0 0 1-.09-.181 9.168 9.168 0 0 1-1.217-.631v-.135a1.347 1.347 0 0 1-.406-.136v-.135h-.27v-.135h-.226c-.026-.142-.116-.21-.27-.203.393-.022.783 0 1.172.068.415.145.835.288 1.261.428.12.075.24.143.361.203Z" clip-rule="evenodd"/>
    <path fill="#7A7A7A" fill-rule="evenodd" d="M18.405 22.123c-.008.166 0 .331.022.496a.34.34 0 0 1 .248-.18v-.27h.135a1.39 1.39 0 0 1-.09.09c.037.523.06 1.049.068 1.577.06.04.128.054.203.045v.135h.27v1.712c-.376.008-.752 0-1.127-.022a2.508 2.508 0 0 0-.45-.113.802.802 0 0 0-.406-.135v-.135h-.135c-.04-.14-.123-.184-.248-.135-.082-.023-.09-.061-.023-.113-.047-.022-.092-.015-.135.022l-.045-.045.09-.09c-.07-.058-.115-.043-.135.045h-.09a.211.211 0 0 1 .09-.18 1.019 1.019 0 0 1-.135-.18.164.164 0 0 0-.068.045.689.689 0 0 0-.27-.316.177.177 0 0 0-.09.045c.035-.154-.033-.244-.203-.27.015-.135-.045-.195-.18-.18a.198.198 0 0 0-.046-.158.367.367 0 0 0-.225-.113c-.015-.135-.09-.21-.225-.225v-.135a.367.367 0 0 1-.226-.113 4.588 4.588 0 0 0-.54-.54.353.353 0 0 1 .225.022c.165.032.33.07.496.113.81.022 1.622.03 2.433.022-.007.676 0 1.352.023 2.028.06.2.128.395.203.586.173.093.361.169.563.225l.158-.045a.425.425 0 0 1-.135-.135.219.219 0 0 0-.18-.045.297.297 0 0 0-.18-.27.461.461 0 0 1-.069-.18 52.063 52.063 0 0 1-.022-2.164 2.32 2.32 0 0 1 .405-.135c-.014-.204.001-.4.046-.586Z" clip-rule="evenodd"/>
    <path fill="#F7F7F7" fill-rule="evenodd" d="M17.593 22.844h.36c-.007.721 0 1.442.023 2.163.01.065.032.125.068.18a.297.297 0 0 1 .18.271.219.219 0 0 1 .18.045c.035.055.08.1.135.135l-.157.045a2.76 2.76 0 0 1-.564-.225 8.385 8.385 0 0 1-.203-.586 45.705 45.705 0 0 1-.022-2.028Z" clip-rule="evenodd"/>
    <path fill="#575757" fill-rule="evenodd" d="M35.71 22.484c.09 1.41.12 2.838.09 4.28h-.405v-4.01h.315v-.27Z" clip-rule="evenodd"/>
    <path fill="#F0F0F0" fill-rule="evenodd" d="M12.095 23.295a.1.1 0 0 0 .045.067.192.192 0 0 0-.09.203h-.135a2.33 2.33 0 0 1-.18.45h-.136v.181h-.135v.18c-.154-.005-.214.07-.18.226h-.136v.135a.147.147 0 0 0-.157.09.38.38 0 0 1-.023-.18 6.64 6.64 0 0 0 .316-.811h.135a1.4 1.4 0 0 1 .405-.767c.109.06.199.135.27.226Z" clip-rule="evenodd"/>
    <path fill="#4B4B4B" fill-rule="evenodd" d="M17.683 25.593c.153.023.303.061.451.113.375.022.75.03 1.127.022v-1.712h.676v-.135h.135v1.892c-.661.008-1.322 0-1.983-.022a1.271 1.271 0 0 1-.406-.158Z" clip-rule="evenodd"/>
    <path fill="#818181" fill-rule="evenodd" d="M37.107 22.303h.27v4.462h-.45v-4.417a.208.208 0 0 0 .18-.045ZM8.806 24.647h.045c-.013.127-.058.15-.136.068.015-.047.046-.07.09-.068Z" clip-rule="evenodd"/>
    <path fill="#4C4C4C" fill-rule="evenodd" d="M17.142 25.323a3.446 3.446 0 0 1-.495-.18v-.136c.02-.088.065-.103.135-.045l-.09.09.045.045c.043-.037.088-.044.135-.022-.067.052-.06.09.023.113.125-.05.208-.004.247.135Z" clip-rule="evenodd"/>
    <path fill="#666" fill-rule="evenodd" d="M21.604 25.819h.946v.585h-.045v-.54c-.308.014-.609 0-.901-.046Z" clip-rule="evenodd"/>
    <path fill="#1B1B1B" fill-rule="evenodd" d="M9.12 25.954h1.893c-.03.96-.037 1.921-.022 2.884a19.7 19.7 0 0 1-1.87.045v-2.93Z" clip-rule="evenodd"/>
    <path fill="#353535" fill-rule="evenodd" d="M7.093 25.999c.668-.045 1.344-.06 2.028-.045v2.93c-.632.007-1.263 0-1.893-.024a.149.149 0 0 1-.09-.067h.135v-.947a.208.208 0 0 0 .045-.18.618.618 0 0 1-.45-.09 1.3 1.3 0 0 0 .45.045 1.546 1.546 0 0 0-.045-.495c.075-.031.105-.091.09-.18a1.424 1.424 0 0 1-.496-.046h.406V26h-.18Z" clip-rule="evenodd"/>
    <path fill="#5B5B5B" fill-rule="evenodd" d="M26.156 25.954v.991h-.406c-.007-.256 0-.511.023-.766a.894.894 0 0 0 .158-.18.321.321 0 0 1 .225-.045Z" clip-rule="evenodd"/>
    <path fill="#353535" fill-rule="evenodd" d="M26.156 25.954h1.848v2.93c-.654.014-1.3-.001-1.938-.046a2.78 2.78 0 0 0 .09-.992v-.18a.941.941 0 0 1-.406-.045h.406v-.45c.024-.003.04-.018.045-.046a1.923 1.923 0 0 0-.406-.067.545.545 0 0 0 .36-.113v-.991Z" clip-rule="evenodd"/>
    <path fill="#1F1F1F" fill-rule="evenodd" d="M28.003 25.954c.332-.015.663 0 .992.045-.045.96-.06 1.92-.045 2.884h-.947v-2.93Z" clip-rule="evenodd"/>
    <path fill="#606060" fill-rule="evenodd" d="M7.093 25.999h.18v.901h-.406a2.633 2.633 0 0 1 .09-.811c.076.01.121-.02.136-.09Z" clip-rule="evenodd"/>
    <path fill="#5B5B5B" fill-rule="evenodd" d="M26.157 27.17v.452h-.407v-.451h.407Z" clip-rule="evenodd"/>
    <path fill="#5D5D5D" fill-rule="evenodd" d="M7.273 27.125c.041.161.056.326.045.496a1.3 1.3 0 0 1-.45-.045v-.45h.405Z" clip-rule="evenodd"/>
    <path fill="#656565" fill-rule="evenodd" d="M7.273 27.846v.947h-.135c-.03-.076-.091-.106-.18-.09a2.85 2.85 0 0 1-.09-.857h.405Z" clip-rule="evenodd"/>
    <path fill="#5D5D5D" fill-rule="evenodd" d="M26.156 27.846c.028.35-.002.68-.09.992a.312.312 0 0 0-.18-.045c.012-.083-.018-.143-.09-.18a3.3 3.3 0 0 1-.046-.767h.406Z" clip-rule="evenodd"/>
    <path fill="#545454" fill-rule="evenodd" d="M6.912 29.424c1.622.103 3.244.118 4.868.045-.773.06-1.562.09-2.366.09l-2.366-.045c-.05-.03-.095-.06-.136-.09Z" clip-rule="evenodd"/>
    <g style="mix-blend-mode:overlay">
      <path fill="red" fill-rule="evenodd" d="M34.583 12.75h.496v4.055h-.496V12.75Zm1.217.044a84.36 84.36 0 0 1-.045 4.011h-.315v-4.01h.36Zm.721 4.416c-.057-1.23-.11-2.612-.158-4.145l-.045 3.83a150.324 150.324 0 0 1-.09-4.1c-.022 1.396-.03 2.793-.022 4.19.058-.01.103.005.135.045h-.18v-4.28h.405c.015 1.494 0 2.981-.045 4.46Z" clip-rule="evenodd"/>
      <path fill="red" fill-rule="evenodd" d="M35.8 12.794h-.36v4.011a91.314 91.314 0 0 1-.045-4.056.938.938 0 0 1 .405.045Zm1.127-.044h.406v4.46a1.883 1.883 0 0 0-.406-.044v-4.417Zm-.406 4.46h-.18v-.18c-.032-.04-.077-.055-.135-.045-.008-1.397 0-2.794.022-4.19.012 1.367.042 2.734.09 4.1l.045-3.83c.049 1.533.101 2.915.158 4.146Zm-1.036 2.975c.023.128.068.248.135.36a1.45 1.45 0 0 0-.225.406c-.104.037-.21.074-.316.113-2.584.023-5.168.03-7.751.023v-.18a.21.21 0 0 0 .225-.09c2.508-.046 5.017-.061 7.526-.046l.18-.406h.18a.208.208 0 0 1 .046-.18Zm-29.294-.631a.75.75 0 0 1-.36.045v.316a.945.945 0 0 1 .495.09c.085 0 .1-.022.045-.068.195-.022.39-.03.586-.022l1.172.09c.069.085.159.13.27.135.515.039 1.026.106 1.533.203.946.077 1.892.144 2.839.203-.013.162.002.32.045.473.345.022.69.03 1.036.022v-.81h.18v.224a.222.222 0 0 1 .136.023.653.653 0 0 0 .18.225c.21.023.42.03.631.023v-.316a.59.59 0 0 1 .316.046c.08.153.155.303.225.45h.135l.09.36h.135v.136h.136v.135h.135v.135a1.39 1.39 0 0 1-.09-.09 33.84 33.84 0 0 0-2.524.135 9.45 9.45 0 0 0-.811-.09v-.135c-.571.008-1.142 0-1.713-.023a36.674 36.674 0 0 1-1.712-.518 3.607 3.607 0 0 0-.676-.135v-.135a2.74 2.74 0 0 1-.496-.023 2.72 2.72 0 0 0-.992-.315 3.257 3.257 0 0 0-1.352-.383v-.406h.406Zm-3.29.406h.631v4.01h-.63v-4.01Z" clip-rule="evenodd"/>
      <path fill="red" fill-rule="evenodd" d="M6.957 19.915h5.318v.405h.496v.226c-.947-.059-1.893-.126-2.84-.203A13.574 13.574 0 0 0 8.4 20.14a.353.353 0 0 1-.27-.135l-1.172-.09Zm-3.425.045h.856v4.01a2.537 2.537 0 0 0-.856 0v-4.01Z" clip-rule="evenodd"/>
      <path fill="red" fill-rule="evenodd" d="M9.12 19.284c-.11.05-.23.088-.36.113.197.018.392.049.586.09l2.524.045c.114.008.219.03.315.067H6.957v.316a3.83 3.83 0 0 0-.586.022c.055.046.04.069-.045.068a.945.945 0 0 0-.495-.09v-.316c.13.014.25 0 .36-.045.737.015 1.473 0 2.208-.045a.463.463 0 0 0-.18-.067c.294-.096.594-.149.901-.158Zm26.41.045h1.036v.856h-1.081c.043-.281.058-.567.045-.856Zm-18.298-.451c.192.092.365.212.519.36.03.346.03.692 0 1.037a.198.198 0 0 1-.158.045v.18h-.18v.136a5.699 5.699 0 0 1-1.397 0h.676c.186-.002.366-.032.54-.09v-.136h.18v-.225h.136a6.53 6.53 0 0 0-.023-.766.224.224 0 0 0-.157-.18.219.219 0 0 1-.045-.18c-.059.01-.104-.005-.136-.046.041-.032.056-.077.045-.135Zm18.253-.135a.53.53 0 0 1 .135.45h.946v.136h-1.081c-.026-.097.004-.187.09-.27a.505.505 0 0 1-.09-.316Z" clip-rule="evenodd"/>
      <path fill="red" fill-rule="evenodd" d="M12.771 18.968v.226h-.496v.405h-.09a1.103 1.103 0 0 0-.315-.067l-2.524-.045a5.217 5.217 0 0 0-.586-.09c.13-.025.25-.063.36-.113a105.9 105.9 0 0 0 3.651-.316Zm4.462-.09c.01.058-.005.103-.046.135a.897.897 0 0 0-.45-.09.208.208 0 0 0-.045.18h.225v.18h.135v1.037c-.17-.01-.2.036-.09.136a.444.444 0 0 1-.27.045v.135h-.676a.644.644 0 0 0-.27-.158.801.801 0 0 0-.204-.248.584.584 0 0 1-.022-.225 6.807 6.807 0 0 1 1.082-.045v-.406H15.52a.594.594 0 0 1 .113-.36 3.01 3.01 0 0 1 .383-.293c.405-.023.81-.03 1.217-.023Zm-3.876-.045h.18v.721h.18v.406h-.18v.766h-.36v-.045h.18v-1.848Zm7.887-.676c.088.059.178.12.27.18v.136h5.768v.135c.169-.04.26.02.27.18 2.45-.015 4.898 0 7.347.045.143.05.279.11.405.18.007.145.045.16.113.045.009.1.031.19.068.27h.045c.013.29-.002.576-.045.857a.208.208 0 0 0-.045.18h-.18l-.181.406c-2.509-.015-5.018 0-7.526.045-.053.078-.128.108-.226.09v.18H21.56v.18a5.066 5.066 0 0 1-.766.113l.045.045c-.09.09-.165.189-.226.293-.04.032-.055.077-.044.136h-.136c.022.18-.053.284-.225.315v-.315a.486.486 0 0 1-.27-.09c.2-.128.396-.263.585-.406.264-.088.52-.193.767-.316.043-.358.058-.718.045-1.081h2.523v-.36h-2.523a8.19 8.19 0 0 0-.046-1.127 28.473 28.473 0 0 1-.766-.27 2.735 2.735 0 0 0-.585-.451.32.32 0 0 1 .225-.046.82.82 0 0 1 .113-.36c.154.284.371.509.653.676.118.025.223.07.316.135Z" clip-rule="evenodd"/>
      <path fill="red" fill-rule="evenodd" d="M20.117 18.608h.18v.676h-.18v-.676Zm7.165-.135h.18c2.54-.008 5.078 0 7.617.022a.4.4 0 0 1 .158.158c.117-.064.2-.034.248.09a.504.504 0 0 0 .09.316c-.086.083-.116.173-.09.27a.825.825 0 0 1-.068-.27c-.068.114-.106.1-.113-.046a2.502 2.502 0 0 0-.405-.18 299.31 299.31 0 0 0-7.346-.045c-.012-.16-.102-.22-.27-.18v-.135Zm-5.768-.136c1.041.09 2.093.12 3.155.09.804-.014 1.6 0 2.388.046h-5.543v-.136Z" clip-rule="evenodd"/>
      <path fill="red" fill-rule="evenodd" d="M25.345 18.247c.556-.007 1.112 0 1.667.023a.71.71 0 0 0 .316.09c.065.017.11.055.135.113h-.406a31.674 31.674 0 0 0-2.388-.046c.2-.059.41-.096.63-.112a.102.102 0 0 0 .046-.068Z" clip-rule="evenodd"/>
      <path fill="red" fill-rule="evenodd" d="M21.243 18.157c1.365.084 2.732.114 4.102.09a.102.102 0 0 1-.046.068c-.22.016-.43.053-.63.112a28.076 28.076 0 0 1-3.155-.09c-.092-.06-.182-.121-.27-.18Zm-8.021-.315c.96.09 1.936.12 2.929.09-.032.04-.077.056-.135.045v.135a.198.198 0 0 0-.158.045c-.2.314-.402.63-.608.947a.59.59 0 0 1-.316.045v-.316a3.25 3.25 0 0 0-.54.023 2.5 2.5 0 0 1-.316.247.219.219 0 0 0-.045.18h-.135v-.765H12.77v.45c-1.215.126-2.432.232-3.65.316a3.189 3.189 0 0 0-.902.158c.065.01.125.032.18.067-.735.045-1.471.06-2.208.045.153-.073.318-.14.496-.203.293-.064.586-.132.879-.202.254-.153.532-.228.833-.226v-.135h.316v-.135c.168.014.333 0 .496-.045.55-.23 1.12-.38 1.712-.45v-.136c.602.015 1.203 0 1.803-.045.177-.023.342-.068.496-.135Z" clip-rule="evenodd"/>
      <path fill="red" fill-rule="evenodd" d="M16.647 17.166v.585c-.121-.007-.241 0-.36.023a.336.336 0 0 1-.136.158c-.993.03-1.969 0-2.93-.09.107.007.212 0 .316-.023a2.33 2.33 0 0 1 .676-.225c.26-.086.5-.206.721-.36a12.1 12.1 0 0 1 1.713-.068Zm.27 0h.947v.585h-.947v-.585Zm2.794-1.172a.26.26 0 0 1 .248.09c.03.436.03.871 0 1.307a.41.41 0 0 1-.248.045v-1.442Zm-16.81-.361h.631v3.876c-.19-.014-.37 0-.54.045h-.09v-3.92Z" clip-rule="evenodd"/>
      <path fill="red" fill-rule="evenodd" d="M2.901 15.633c.4-.022.805-.037 1.217-.045.096.005.18.036.248.09.014 1.29.022 2.583.022 3.876H2.991a1.65 1.65 0 0 1 .541-.045v-3.876h-.63Zm14.152-1.352c.057.13.02.16-.113.09-.082.024-.09.061-.023.113-.042.028-.08.02-.112-.022-.028.042-.02.08.022.112a.976.976 0 0 1-.36.203v.135h-.136v.135a.291.291 0 0 0-.225.136l-.09-.09c-.023.238-.15.418-.383.54a.627.627 0 0 0-.158.27l-.27.09a1.342 1.342 0 0 0-.09.316h-.18a.198.198 0 0 1-.046.158c-.086.05-.176.088-.27.113v.135h-.135v.18h.18a7.83 7.83 0 0 0-1.307.496 9.871 9.871 0 0 0-.766.158 2.9 2.9 0 0 1-.721 0c.323-.193.653-.366.991-.519v-.135h.27v-.135h.226a.14.14 0 0 1 .045-.135 35.855 35.855 0 0 1 2.254-1.442.14.14 0 0 0 .045-.136c.341-.152.657-.355.946-.608l.406-.158Zm4.055.721h.226v1.848h-.136a.38.38 0 0 1-.022.18l-.045-.045c-.023-.66-.03-1.321-.023-1.983Z" clip-rule="evenodd"/>
      <path fill="red" fill-rule="evenodd" d="M18.27 13.83v.136c-.249-.027-.399.078-.451.315h-.136a.8.8 0 0 1-.067.316c-.023.69-.03 1.382-.023 2.073h.36c-.007-.721 0-1.442.023-2.163.05-.18.155-.27.316-.27a.658.658 0 0 0 .203-.406h.766v1.712h-.27v.135a.292.292 0 0 0-.203.045c-.023.556-.03 1.112-.023 1.668a.608.608 0 0 0-.36-.406.503.503 0 0 0-.316-.247 116.315 116.315 0 0 0-3.065-.023.99.99 0 0 1-.36.18h-.18v-.18h.135v-.135a1.06 1.06 0 0 0 .27-.113.197.197 0 0 0 .045-.158h.18c.018-.11.048-.214.09-.315l.271-.09a.627.627 0 0 1 .158-.27c.232-.123.36-.303.383-.541l.09.09a.291.291 0 0 1 .225-.136v-.135h.136v-.135a.976.976 0 0 0 .36-.203c-.043-.032-.05-.07-.022-.112.032.043.07.05.112.022-.067-.052-.06-.09.023-.113.133.07.17.04.112-.09.374-.228.78-.378 1.217-.45Z" clip-rule="evenodd"/>
      <path fill="red" fill-rule="evenodd" d="M19.26 13.83h.812v1.848h-.136v-.135h-.675v-1.712Zm8.068 7.257a4.406 4.406 0 0 1-1.172.157c-1.488.032-2.975.07-4.462.113a3.29 3.29 0 0 0-.856.18c-.011.134-.086.194-.226.18.06-.104.136-.202.226-.293l-.045-.045a5.08 5.08 0 0 0 .766-.112v-.18h5.768Zm-11.177.585h.135v.136h.406v.585h-1.533v-.135c-.555-.15-1.096-.33-1.622-.54a33.564 33.564 0 0 1 2.524-.136c.03.034.06.064.09.09Zm.766.136h.947v.585h-.947v-.585Zm2.704.27c.038.473.06.954.068 1.442.022-.48.03-.961.022-1.442a.26.26 0 0 1 .248.09c.038.437.03.872-.022 1.307a.55.55 0 0 1-.541.09h.225v-1.487Zm16.81.225h.135v4.462h-.405v-4.236c.173.021.263-.054.27-.226Zm-1.848.361h.496v4.1h-.496v-4.1Zm-19.919.045a.353.353 0 0 0-.225-.023c.195.166.375.346.54.541a.367.367 0 0 0 .226.113v.135c.135.015.21.09.225.225.087.01.162.048.226.113a.198.198 0 0 1 .045.158c.135-.015.195.045.18.18.17.026.238.116.203.27a.178.178 0 0 1 .09-.045.69.69 0 0 1 .27.316.164.164 0 0 1 .068-.045.984.984 0 0 0 .135.18.213.213 0 0 0-.09.18 1.06 1.06 0 0 0-.631-.315v-.135a2.137 2.137 0 0 1-.54-.36.913.913 0 0 0-.361-.136v-.135c-.24-.09-.466-.21-.676-.36a.213.213 0 0 1-.09-.181 9.168 9.168 0 0 1-1.217-.631v-.135a1.347 1.347 0 0 1-.406-.136v-.135h-.27v-.135h-.226c-.026-.142-.116-.21-.27-.203.393-.022.783 0 1.172.068.415.145.835.288 1.261.428.12.075.24.143.361.203Z" clip-rule="evenodd"/>
      <path fill="red" fill-rule="evenodd" d="M18.404 22.123c-.007.166 0 .331.023.496a.34.34 0 0 1 .248-.18v-.27h.135a1.42 1.42 0 0 1-.09.09c.037.523.059 1.049.067 1.577.062.04.13.054.203.045v.135h.27v1.712c-.375.008-.75 0-1.126-.022a2.51 2.51 0 0 0-.45-.113.802.802 0 0 0-.406-.135v-.135h-.136c-.04-.14-.122-.184-.247-.135-.083-.023-.09-.061-.023-.113-.047-.022-.092-.015-.135.022l-.045-.045.09-.09c-.07-.058-.115-.043-.135.045h-.09a.211.211 0 0 1 .09-.18 1.009 1.009 0 0 1-.135-.18.163.163 0 0 0-.068.045.69.69 0 0 0-.27-.316.178.178 0 0 0-.09.045c.034-.154-.033-.244-.203-.27.015-.135-.045-.195-.18-.18a.198.198 0 0 0-.046-.158.367.367 0 0 0-.225-.113c-.015-.135-.09-.21-.225-.225v-.135a.367.367 0 0 1-.226-.113 4.596 4.596 0 0 0-.54-.54.352.352 0 0 1 .225.022c.165.032.33.07.495.113.812.022 1.623.03 2.434.022-.007.676 0 1.352.023 2.028.06.2.128.395.203.586.173.093.36.169.563.225l.158-.045a.424.424 0 0 1-.136-.135.22.22 0 0 0-.18-.045.298.298 0 0 0-.18-.27.463.463 0 0 1-.068-.18 52.063 52.063 0 0 1-.022-2.164c.129-.057.264-.102.405-.135-.014-.204.001-.4.045-.586Z" clip-rule="evenodd"/>
      <path fill="red" fill-rule="evenodd" d="M17.593 22.844h.36c-.007.721 0 1.442.023 2.163.01.065.032.125.068.18a.297.297 0 0 1 .18.271.219.219 0 0 1 .18.045c.035.055.08.1.135.135l-.157.045a2.76 2.76 0 0 1-.564-.225 8.385 8.385 0 0 1-.203-.586 45.705 45.705 0 0 1-.022-2.028Zm18.117-.36a50.9 50.9 0 0 1 .09 4.28h-.405v-4.01h.315v-.27Z" clip-rule="evenodd"/>
      <path fill="red" fill-rule="evenodd" d="M17.683 25.593c.153.023.303.061.451.113.375.022.75.03 1.127.022v-1.712h.676v-.135h.135v1.892c-.661.008-1.322 0-1.983-.022a1.271 1.271 0 0 1-.406-.158Z" clip-rule="evenodd"/>
      <path fill="red" fill-rule="evenodd" d="M37.107 22.303h.27v4.462h-.45v-4.417a.208.208 0 0 0 .18-.045Z" clip-rule="evenodd" style="mix-blend-mode:overlay"/>
      <path fill="red" fill-rule="evenodd" d="M21.153 22.574c.037.042.075.087.113.135.03.57.03 1.142 0 1.712a.165.165 0 0 1-.068.046c-.045-.63-.06-1.262-.045-1.893Z" clip-rule="evenodd"/>
    </g>
  </g>
  <defs>
    <clipPath id="a">
      <path fill="#fff" d="M2 2h36v36H2z"/>
    </clipPath>
  </defs>
</svg>
